PathFileType	4	(X/Y/Z)	c:\Git\powerlifing_model_clean\simulations\HC835B\Session1\HC835B_STD_0001\marker_experimental.trc
DataRate	CameraRate	NumFrames	NumMarkers	Units	OrigDataRate	OrigDataStartFrame	OrigNumFrames
240.000000	240.000000	4	48	mm	240.000000	168	337
Frame#	Time	RPSI			LPSI			RASI			LASI			RGT			RTH1			RTH2			RTH3			RTH4			RLK			RMK			RSK1			RSK2			RSK3			RSK4			RLA			RMA			RCAL1			RCAL2			RCAL3			RST			RPT			RTN			RFMB			RSMB			RVMB			RFMH			RSMH			RVMH			RPM			LGT			LTH1			LTH2			LTH3			LTH4			LLK			LMK			LSK1			LSK2			LSK3			LSK4			LLA			LMA			LCAL1			LCAL2			LCAL3			LFMH			LVMH			
		X1	Y1	Z1	X2	Y2	Z2	X3	Y3	Z3	X4	Y4	Z4	X5	Y5	Z5	X6	Y6	Z6	X7	Y7	Z7	X8	Y8	Z8	X9	Y9	Z9	X10	Y10	Z10	X11	Y11	Z11	X12	Y12	Z12	X13	Y13	Z13	X14	Y14	Z14	X15	Y15	Z15	X16	Y16	Z16	X17	Y17	Z17	X18	Y18	Z18	X19	Y19	Z19	X20	Y20	Z20	X21	Y21	Z21	X22	Y22	Z22	X23	Y23	Z23	X24	Y24	Z24	X25	Y25	Z25	X26	Y26	Z26	X27	Y27	Z27	X28	Y28	Z28	X29	Y29	Z29	X30	Y30	Z30	X31	Y31	Z31	X32	Y32	Z32	X33	Y33	Z33	X34	Y34	Z34	X35	Y35	Z35	X36	Y36	Z36	X37	Y37	Z37	X38	Y38	Z38	X39	Y39	Z39	X40	Y40	Z40	X41	Y41	Z41	X42	Y42	Z42	X43	Y43	Z43	X44	Y44	Z44	X45	Y45	Z45	X46	Y46	Z46	X47	Y47	Z47	X48	Y48	Z48	

169	0.7	494.5653686523439	1162.40771484375	-356.4942016601563	386.0960083007814	1159.859375	-352.8983459472657	554.3673706054689	1105.236938476563	-560.4756469726564	315.2328186035157	1100.878662109375	-558.0567016601564	636.6990966796876	1023.909912109375	-451.7639160156251	639.0857543945314	836.265319824219	-462.5471191406251	627.0968017578126	819.2512207031252	-519.6896362304689	629.4119262695314	753.4887695312501	-477.391571044922	606.1667480468751	737.2734985351564	-528.6161499023439	608.8439331054689	552.6885986328126	-458.928680419922	483.1819152832032	538.5253295898439	-448.620574951172	612.8182983398439	307.5326232910157	-361.4590454101563	614.8179931640626	287.9731445312501	-419.8136291503907	611.2134399414064	249.6899719238282	-372.5070190429688	600.2148437500001	231.7964935302735	-428.4969787597657	605.2362670898439	114.7946243286133	-359.5265808105469	521.8976440429689	124.1877746582032	-404.3941650390626	560.2715454101564	95.64581298828126	-304.8762512207032	528.6940307617189	58.28308105468751	-314.4179687500001	592.8657226562501	58.95243072509767	-308.8245849609376	517.3179931640626	76.2683792114258	-380.7471923828126	618.2135620117189	72.27051544189455	-367.2030639648438	530.4214477539064	94.46822357177736	-438.4341430664064	536.9466552734376	78.12938690185548	-469.512176513672	586.1879882812501	101.7489776611328	-477.544891357422	632.2831420898439	47.78563308715821	-410.2644958496095	537.2689208984376	50.70206451416017	-527.3294067382814	591.9417724609376	65.70199584960939	-537.5986938476564	648.2130737304689	42.30009078979493	-490.6119995117189	582.5981445312501	53.19561767578126	-596.8961791992189	244.2200469970704	1012.935729980469	-446.548309326172	238.6550598144532	830.8118286132815	-445.5408935546876	241.8149414062501	813.6140747070315	-503.7943725585939	242.8052520751954	746.2129516601564	-458.7014160156251	262.7355651855469	730.8609619140626	-514.5786132812501	265.4054565429688	564.1498413085939	-442.8741455078126	396.3966064453126	553.6507568359376	-443.908172607422	257.3356018066407	300.2057189941407	-355.1434020996094	251.2187194824219	279.2025756835938	-403.6812744140626	257.1095886230469	245.0196838378907	-368.3017883300782	267.4736938476563	225.6684265136719	-420.4179687500001	259.3452758789063	115.449203491211	-363.3424072265626	349.3848266601563	123.7672576904297	-400.8327941894532	306.6295471191407	94.97003173828126	-303.3810119628907	275.8330078125001	58.30707931518556	-303.5615539550782	334.1667175292969	56.53329467773439	-308.0386657714844	344.6763916015626	55.17029571533205	-530.7955932617189	229.7103424072266	41.49606323242188	-493.0257263183595	
170	0.7041666666666666	494.5630187988282	1162.405151367188	-356.5215759277344	386.0879821777345	1159.866577148438	-352.9353332519532	554.3624267578126	1105.228149414063	-560.5156860351564	315.2575988769532	1100.886840820313	-558.0903320312501	636.6602172851564	1023.878723144531	-451.800018310547	639.1045532226564	836.2539672851565	-462.5801086425782	627.1016235351564	819.2506103515627	-519.7155151367189	629.4114990234376	753.4773559570314	-477.4181518554689	606.1567993164064	737.2733764648439	-528.6644897460939	608.8417358398439	552.6854248046876	-458.9791870117189	483.1763916015626	538.5100097656251	-448.6531982421876	612.8051147460939	307.5099182128907	-361.4700317382813	614.7968750000001	287.9632568359376	-419.8175048828126	611.2188720703126	249.6815795898438	-372.5321044921876	600.1953125000001	231.7940521240235	-428.5111694335939	605.2172241210939	114.8316955566407	-359.4799499511719	521.9101562500001	124.1775131225586	-404.4168090820314	560.2798461914064	95.66223907470705	-304.8885803222657	528.7061157226564	58.30319976806642	-314.4085693359376	592.8770141601564	58.95963287353517	-308.8305053710938	517.3494262695314	76.2709197998047	-380.7208557128907	618.2218017578126	72.27005004882814	-367.2107238769532	530.4083251953126	94.50917053222658	-438.4370422363282	536.9843139648439	78.1287307739258	-469.5112609863282	586.1915893554689	101.750358581543	-477.5607299804689	632.2459716796876	47.78389358520509	-410.2473144531251	537.3191528320314	50.68712997436525	-527.3841552734376	591.9877929687501	65.78652954101564	-537.5733642578126	648.2340087890626	42.27499389648438	-490.5897216796876	582.5892944335939	53.19612503051759	-596.9132080078126	244.2002410888672	1012.941650390625	-446.6080932617189	238.6559143066407	830.8212890625002	-445.5709228515626	241.8243560791016	813.6181640625002	-503.8259582519532	242.742416381836	746.2455444335939	-458.7415466308595	262.7312927246094	730.8370361328126	-514.6095581054689	265.4041442871094	564.1428222656251	-442.8955993652345	396.431854248047	553.6788330078126	-443.9379882812501	257.3087768554688	300.2500610351563	-355.1148376464844	251.201889038086	279.1802673339844	-403.6384887695314	257.1300354003907	245.0168609619141	-368.2894287109376	267.4855346679688	225.6530761718751	-420.4116210937501	259.3526611328126	115.4657211303711	-363.3451843261719	349.3995971679688	123.7715835571289	-400.8560791015626	306.6409606933594	94.99888610839845	-303.3562011718751	275.8305664062501	58.2997512817383	-303.5724792480469	334.1767578125001	56.56138992309572	-308.0202941894532	344.6784057617188	55.16179656982423	-530.7592163085939	229.7182922363282	41.49771881103516	-493.0174255371095	
171	0.7083333333333334	494.5614318847657	1162.407592773438	-356.5722351074219	386.0904541015626	1159.874755859375	-352.9928588867188	554.3883666992189	1105.204956054688	-560.5484008789064	315.2657775878907	1100.880615234375	-558.1344604492189	636.6478881835939	1023.887512207031	-451.8294982910157	639.0874633789064	836.2432861328127	-462.6175231933595	627.1021728515626	819.2556152343752	-519.7711181640626	629.4335327148439	753.4651489257814	-477.4712829589845	606.1591186523439	737.2650756835939	-528.7136230468751	608.8439941406251	552.6873779296876	-459.0367431640626	483.165740966797	538.5050048828126	-448.6967163085939	612.7712402343751	307.5335998535157	-361.4961242675782	614.8103027343751	287.9784851074219	-419.8518676757814	611.2138061523439	249.6930694580079	-372.5364074707032	600.1925659179689	231.7898559570313	-428.5270385742189	605.1970825195314	114.8179016113282	-359.5100708007813	521.8653564453126	124.202865600586	-404.4296875000001	560.2852172851564	95.65512847900392	-304.8979797363282	528.7088012695314	58.28261184692384	-314.4241943359376	592.8577270507814	58.95869445800783	-308.8288574218751	517.3274536132814	76.26599121093751	-380.7476196289063	618.1884155273439	72.25952148437501	-367.2098388671876	530.3848876953126	94.49108123779298	-438.4499511718751	536.9950561523439	78.13478088378908	-469.5133056640626	586.1725463867189	101.7455139160157	-477.5455017089845	632.2302246093751	47.77328872680665	-410.2546691894532	537.2910766601564	50.683895111084	-527.3959350585939	591.9955444335939	65.7792205810547	-537.5825195312501	648.2147827148439	42.28650283813477	-490.5953979492189	582.5878906250001	53.19100189208986	-596.9226684570314	244.2265930175782	1012.974670410156	-446.6655273437501	238.6452941894532	830.840759277344	-445.6267395019532	241.8238372802735	813.627136230469	-503.859344482422	242.7553405761719	746.2611694335939	-458.7816467285157	262.7290039062501	730.8594970703126	-514.6430664062501	265.3849487304688	564.1636962890626	-442.918426513672	396.4067993164064	553.6781616210939	-443.9605102539064	257.3159179687501	300.2539672851563	-355.1326904296876	251.2083435058594	279.2155151367188	-403.678680419922	257.1205444335938	245.031723022461	-368.3099975585938	267.4856567382813	225.6793975830079	-420.4093322753907	259.3695068359376	115.4842758178711	-363.3576354980469	349.4071350097657	123.7796936035157	-400.8548889160157	306.6498718261719	94.95308685302736	-303.3838806152344	275.8088378906251	58.32356643676759	-303.5856323242188	334.1736755371094	56.53549957275392	-308.0432128906251	344.7028503417969	55.16169738769533	-530.7091674804689	229.7085266113282	41.4760856628418	-493.017547607422	
172	0.7125	494.5474853515626	1162.419555664063	-356.5910339355469	386.0813293457032	1159.870849609375	-353.0336608886719	554.3829956054689	1105.19580078125	-560.5841064453126	315.2377624511719	1100.879638671875	-558.1799926757814	636.6339721679689	1023.885498046875	-451.856170654297	639.0821533203126	836.2390136718752	-462.6535644531251	627.0844726562501	819.241882324219	-519.7877197265626	629.4480590820314	753.4721069335939	-477.5120544433595	606.1616210937501	737.2440795898439	-528.7395019531251	608.8543701171876	552.6774902343751	-459.0559387207032	483.1625366210939	538.5062255859376	-448.7453918457032	612.8120727539064	307.5505371093751	-361.5401306152344	614.8313598632814	287.9754943847657	-419.8746948242189	611.2249145507814	249.6933746337891	-372.5502929687501	600.1955566406251	231.7893981933594	-428.546112060547	605.2053833007814	114.8286666870117	-359.5033569335938	521.8873291015626	124.1655731201172	-404.4114990234376	560.2887573242189	95.6704559326172	-304.8920593261719	528.6889648437501	58.33137893676759	-314.4167480468751	592.8853149414064	58.97566986083986	-308.8332214355469	517.3109741210939	76.29141998291017	-380.7027587890626	618.2158813476564	72.25095367431642	-367.2127380371094	530.3700561523439	94.47885894775392	-438.4677124023439	536.9509887695314	78.11761474609376	-469.5279541015626	586.1679687500001	101.7654724121094	-477.544647216797	632.2027587890626	47.79143524169923	-410.2547302246095	537.3179321289064	50.70423889160158	-527.4084472656251	592.0014648437501	65.77026367187501	-537.5985717773439	648.2092285156251	42.27328491210938	-490.6071777343751	582.6030273437501	53.19599914550783	-596.9201660156251	244.2333679199219	1012.991394042969	-446.7173461914064	238.6521301269532	830.8157958984377	-445.6772460937501	241.8428039550782	813.6247558593752	-503.9121093750001	242.7530212402344	746.2852172851564	-458.8482360839845	262.7563171386719	730.8205566406251	-514.6751098632814	265.3847656250001	564.1383056640626	-442.9520874023439	396.4082031250001	553.6562500000001	-443.9649658203126	257.2778015136719	300.2750549316407	-355.1372985839844	251.215805053711	279.2334594726563	-403.6568908691407	257.1158447265626	245.047836303711	-368.3207092285157	267.4801635742188	225.672592163086	-420.4235229492189	259.3481750488282	115.4615478515625	-363.3613891601563	349.3729248046876	123.7705535888672	-400.847869873047	306.6352233886719	95.01027679443361	-303.3575744628907	275.8098144531251	58.33687210083009	-303.5745239257813	334.1493225097657	56.54365158081056	-308.0166625976563	344.6560974121094	55.1421585083008	-530.7381591796876	229.7144775390626	41.49092102050782	-493.0171508789064	
